# xmcd CD database file
#
# Track frame offsets:
#	150
#	18791
#	32593
#	62485
#	78018
#	92201
#	107092
#	122452
#	137644
#	152709
#	171059
#	184866
#	204774
#	219030
#
# Disc length: 3157 seconds
#
# Revision: 0
# Processed by: cddbd v1.5.1PL0 Copyright (c) Steve Scherf et al.
# Submitted via: CDex 1.60beta1
#
DISCID=a00c530e
DTITLE=Paul "Lil' Buck" Sinegal - Bad Situation
DYEAR=2003
DGENRE=Blues
TTITLE0=Bad Situation
TTITLE1=Bye Bye Baby
TTITLE2=The Blues Is Killing Me
TTITLE3=Why I Sing The Blues
TTITLE4=I'll PLay The Blues For You
TTITLE5=Cold, Cold Feeling
TTITLE6=Pork Chops and Red Beans
TTITLE7=Further On Up The Road
TTITLE8=Highway Blues
TTITLE9=Shakin' The Zydeco
TTITLE10=Well I Done Got Over It
TTITLE11=Junior
TTITLE12=Mr. Landlord
TTITLE13=Woman
EXTD=YEAR: 2003
EXTT0=
EXTT1=
EXTT2=
EXTT3=
EXTT4=
EXTT5=
EXTT6=
EXTT7=
EXTT8=
EXTT9=
EXTT10=
EXTT11=
EXTT12=
EXTT13=
PLAYORDER=
